<svg xmlns="http://www.w3.org/2000/svg" viewBox="0 0 20 20" fill="currentColor">
<path d="M 5.9990233,2.729492 A 1.270183,1.270183 0 0 0 4.7294921,3.9990233 1.270183,1.270183 0 0 0 5.9990233,5.2705076 1.270183,1.270183 0 0 0 7.2705077,3.9990233 1.270183,1.270183 0 0 0 5.9990233,2.729492 Z m 4,0 A 1.270183,1.270183 0 0 0 8.7294921,3.9990233 1.270183,1.270183 0 0 0 9.9990233,5.2705076 1.270183,1.270183 0 0 0 11.270508,3.9990233 1.270183,1.270183 0 0 0 9.9990233,2.729492 Z m 3.9999997,0 A 1.270183,1.270183 0 0 0 12.729492,3.9990233 1.270183,1.270183 0 0 0 13.999023,5.2705076 1.270183,1.270183 0 0 0 15.270508,3.9990233 1.270183,1.270183 0 0 0 13.999023,2.729492 Z m -7.9999997,4 A 1.270183,1.270183 0 0 0 4.7294921,7.9990233 1.270183,1.270183 0 0 0 5.9990233,9.2705075 1.270183,1.270183 0 0 0 7.2705077,7.9990233 1.270183,1.270183 0 0 0 5.9990233,6.729492 Z m 4,0 A 1.270183,1.270183 0 0 0 8.7294921,7.9990233 1.270183,1.270183 0 0 0 9.9990233,9.2705075 1.270183,1.270183 0 0 0 11.270508,7.9990233 1.270183,1.270183 0 0 0 9.9990233,6.729492 Z m 3.9999997,0 A 1.270183,1.270183 0 0 0 12.729492,7.9990233 1.270183,1.270183 0 0 0 13.999023,9.2705075 1.270183,1.270183 0 0 0 15.270508,7.9990233 1.270183,1.270183 0 0 0 13.999023,6.729492 Z m -7.9999997,4.000001 a 1.270183,1.270183 0 0 0 -1.2695312,1.269531 1.270183,1.270183 0 0 0 1.2695312,1.271484 1.270183,1.270183 0 0 0 1.2714844,-1.271484 1.270183,1.270183 0 0 0 -1.2714844,-1.269531 z m 4,0 a 1.270183,1.270183 0 0 0 -1.2695312,1.269531 1.270183,1.270183 0 0 0 1.2695312,1.271484 1.270183,1.270183 0 0 0 1.2714847,-1.271484 1.270183,1.270183 0 0 0 -1.2714847,-1.269531 z m 3.9999997,0 a 1.270183,1.270183 0 0 0 -1.269531,1.269531 1.270183,1.270183 0 0 0 1.269531,1.271484 1.270183,1.270183 0 0 0 1.271485,-1.271484 1.270183,1.270183 0 0 0 -1.271485,-1.269531 z m -7.9999997,4 a 1.270183,1.270183 0 0 0 -1.2695312,1.269531 1.270183,1.270183 0 0 0 1.2695312,1.271484 1.270183,1.270183 0 0 0 1.2714844,-1.271484 1.270183,1.270183 0 0 0 -1.2714844,-1.269531 z m 4,0 a 1.270183,1.270183 0 0 0 -1.2695312,1.269531 1.270183,1.270183 0 0 0 1.2695312,1.271484 1.270183,1.270183 0 0 0 1.2714847,-1.271484 1.270183,1.270183 0 0 0 -1.2714847,-1.269531 z m 3.9999997,0 a 1.270183,1.270183 0 0 0 -1.269531,1.269531 1.270183,1.270183 0 0 0 1.269531,1.271484 1.270183,1.270183 0 0 0 1.271485,-1.271484 1.270183,1.270183 0 0 0 -1.271485,-1.269531 z" />
</svg>
