<svg xmlns="http://www.w3.org/2000/svg" width="14.219" height="18.812" viewBox="0 0 14.219 18.812">
  <defs>
    <style>
      .cls-1 {
        fill: #fff;
        fill-rule: evenodd;
      }
    </style>
  </defs>
  <path id="_-e-Shape_7" data-name="-e-Shape 7" class="cls-1" d="M492.494,290.083c-3.924,0-7.106,1.058-7.106,2.356,0,0,2.4,11.305,3.215,15.182,0.147,0.707,1.742,1.3,3.891,1.3s3.732-.6,3.891-1.3c0.821-3.86,3.214-15.182,3.214-15.182,0-1.3-3.182-2.356-7.1-2.356h0Zm0,3.832c-2.872,0-5.2-.565-5.2-1.262s2.333-1.263,5.2-1.263,5.2,0.566,5.2,1.263S495.366,293.915,492.494,293.915Z" transform="translate(-485.375 -290.094)"/>
</svg>
